<svg xmlns="http://www.w3.org/2000/svg" xmlns:xlink="http://www.w3.org/1999/xlink" version="1.1" id="Layer_1" x="0px" y="0px" viewBox="0 0 160 160" style="enable-background:new 0 0 160 160;" xml:space="preserve"><g xmlns="http://www.w3.org/2000/svg">
	<g>
		<polygon style="fill:#54B848;" points="82.4,99.3 89.4,50.1 40.3,99.3   "/>
		<polygon style="fill:#54B848;" points="16.3,29.5 16.3,99.3 92.3,29.5   "/>
	</g>
	<g>
		<path style="fill:#393F51;" d="M43.4,8.4c0.5-1.1,0.9-2.2,2.1-2.7c1-0.4,2-0.3,2.8,0.4c2.4,1.8,0.3,3.8,3,7.2    c0.9,1.1,1.9,1.9,2.4,3.2c0.7,1.7-0.1,2.6-1.5,3.4c-6.5,4-9.9-4.2-9.8-6.1C42.5,12.4,43.1,9.2,43.4,8.4z"/>
		<path style="fill:#E8BC91;" d="M36.6,29.8c0.3,0,0.9-0.5,1.2-0.6c0.2,0,0.6-0.1,0.7-0.1c0.2-0.8,1.3-5,1.4-6.2    c0.1-1.3,1.1-7.1,1.1-7.1l2.4,0.4c0,0-1,4.4-1.3,6.6c-0.2,1.8-2.3,6-2.5,6.4c0,0,0,0,0,0c0,0.7-0.4,0.4-0.4,0.4l-0.5,0.1    c0,0-1.8,0.2-1.9,0.2C36.7,30.1,36.3,29.8,36.6,29.8z"/>
		<path style="fill:#FDD739;" d="M43.1,12.4c-1.7,0.6-2.7,5.3-2.7,5.3s2.7,0.8,3.4,0.4c0,0,0.8-3.5,1.1-3.4L43.1,12.4z"/>
		<path style="fill:#E8BC91;" d="M29.8,37.9c-0.5,1.4-0.8,2.7-0.8,2.9c0,0.1,0.1,0.5,0.1,0.5c-1.1,1.4-2.6,1.8-3.9,1.9    c0.7-0.6,1.6-1.3,1.7-1.5c0.1-0.3,0.5-1.8,0.7-3.8C28.3,38.3,28.9,38,29.8,37.9z"/>
		<path style="fill:#256653;" d="M44.8,22.3l2.3,6.6c0,0-3.7,0.7-5.2,1c-1.4,0.3-9.2,0.6-9.4,0.7c-0.1,0.1-1.8,5.3-2.5,8.2    c-0.8,0.2-2.2,0-3-0.3c0.4-4.1,1.9-10.7,2.3-11.4C30.2,26,44.8,22.3,44.8,22.3z"/>
		<path style="fill:#F7CA98;" d="M35.7,40.8c-0.3,1.5-0.3,2.8-0.3,3c0,0.1,0.2,0.4,0.2,0.5c-0.8,1.6-2.2,2.2-3.5,2.6    c0.5-0.8,1.4-1.6,1.4-1.8c0-0.3,0.1-1.8-0.1-3.9C34.3,41.4,34.8,41,35.7,40.8z"/>
		<path style="fill:#327F6B;" d="M47.5,22.6l0.9,1.5c1.4,2.4,0.3,5.4-2.2,6.4c0,0,0,0,0,0c-1.3,0.5-9,2.3-9.1,2.5    c-0.1,0.1-0.7,5.6-0.9,8.5c-0.8,0.3-2.2,0.4-3,0.3C32.8,37.7,33,31,33.3,30.3C33.8,29,47.5,22.6,47.5,22.6z"/>
		<path style="fill:#393F51;" d="M35.3,43.8c0.2-0.2,0.9,1,1.1,1.3c0.2,0.3,0.1,0.5,0.1,0.6c-0.1,0.1-4,2.4-5,2.6    c-0.1,0-0.2,0-0.3-0.1c-0.4-0.3,1.4-2.8,2.1-3.1C33.9,44.9,34.4,44.8,35.3,43.8z"/>
		<path style="fill:#393F51;" d="M28.8,40.8c0.2-0.2,0.7,1.2,0.9,1.5c0.2,0.3,0,0.5,0,0.6c-0.1,0.1-4.4,1.6-5.4,1.6    c-0.1,0-0.2-0.1-0.3-0.1c-0.3-0.4,1.8-2.5,2.7-2.6C27.3,41.6,27.7,41.7,28.8,40.8z"/>
		<path style="fill:#FDD739;" d="M44.8,12.4L44.8,12.4L44.8,12.4c0,0-0.1,0-0.2,0c-0.3-0.1-1-0.1-1.6,0.1c-0.7,0.3-1.7,2.9-1.6,5.6    c0,0.4,0,0.8,0.1,1c0.2,2,0.7,5.8,0.8,5.9c0.8,0.5,5.6-1.5,5.9-1.9c0.3-0.4,0.5-5.7,0.7-6l0.3-4.6C48.6,12.3,45.6,12.4,44.8,12.4z    "/>
		<path style="fill:#F7CA98;" d="M46.7,10.7c0,0-0.3,1.6-0.2,2.2c0.1,0.6-0.2,2.6-1.6,2.7c-1.3,0-0.3-2.6-0.1-3.2    c0.1-0.6,0.2-2.5,0.2-2.5L46.7,10.7z"/>
		<path style="fill:#E8BC91;" d="M44.9,10.8c0-0.5,0-1,0-1l1.8,0.8c0,0-0.1,0.3-0.1,0.7C45.8,11.6,45.2,11.3,44.9,10.8z"/>
		<path style="fill:#F7CA98;" d="M47.3,6.3c0,0,0.7,0.4,0.9,1.2c0.3,0.8,0,3-1.8,3.5c-1.8,0.5-2.5-1.2-2.2-2.5    C44.7,7.2,45.5,5.5,47.3,6.3z"/>
		<path style="fill:#F7CA98;" d="M44.1,8c0,0.4,0.2,0.6,0.4,0.6c0.2,0,0.3-0.3,0.3-0.7c0-0.4-0.2-0.6-0.4-0.6    C44.2,7.3,44,7.7,44.1,8z"/>
		<path style="fill:#393F51;" d="M47.1,6.2c0,0,0.3,2.4,1.1,2.8c0.8,0.4,0.4,1.5,0.4,1.5s0.7-2.4,0.1-3.2    C48.1,6.5,47.1,6.2,47.1,6.2z"/>
		<path style="fill:#F7CA98;" d="M47.8,9.4c-0.2,0.3-0.2,0.7,0,0.8c0.2,0.1,0.5,0,0.8-0.3c0.2-0.3,0.2-0.7,0-0.8    C48.3,8.9,48,9.1,47.8,9.4z"/>
		<path style="fill:#FFFFFF;" d="M45.2,9.5l1.2,0.3c0,0-0.2,0.5-0.7,0.4C45.1,10,45.2,9.5,45.2,9.5z"/>
		<path style="fill:#F7CA98;" d="M56.9,29.3c0-0.1-0.1-0.1-0.1-0.1c-0.5,0-1,0-1.5-0.1c-0.1,0-0.2,0-0.2-0.1c-0.1-0.1-0.3-0.1-0.4,0    c-0.1,0-0.2,0-0.2,0c-0.2,0-1-0.2-1.3-0.3c-0.1,0-0.1-0.1-0.2-0.2c-0.4-1.4-1.1-4.6-1.2-5.6c-0.1-1.3-1.1-7.4-1.1-7.4l-2.5,0.7    c0,0,1,4.4,1.3,6.6c0.2,1.7,1.9,5.2,2.4,6.2c0.3,0.8,0.8,0.8,1,0.8c0.1,0,0.1,0,0.2,0.1c0.1,0.1,0.2,0.2,0.3,0.3    c0.1,0.1,0.2,0.1,0.2,0.2c0.1,0.2,0.2,0.3,0.3,0.5c0.1,0.1,0.1,0.1,0.2,0.1c0.1,0,0.1-0.1,0.1-0.2c0-0.2-0.1-0.3-0.1-0.5    c-0.1-0.1-0.1-0.2,0-0.4c0.1-0.1,0.1-0.1,0.2-0.2c0.1-0.1,0.2-0.1,0.3-0.1c0.2,0,0.4,0.1,0.5,0.1l0.1,0c0,0,0.1,0,0.1,0    c0,0,0.3,0,0.4,0c0.1,0,0.2,0,0.3,0c0.1,0,0.3,0,0.3,0c0.1,0,0.2,0,0.2-0.1c0,0,0.1-0.1,0-0.1c0,0,0-0.1-0.1-0.1    c-0.1,0-0.4,0-0.4-0.1c0.1,0,0.4,0,0.5,0c0.1,0,0.2,0,0.3-0.1C56.9,29.4,56.9,29.4,56.9,29.3z"/>
		<path style="fill:#FDD739;" d="M49.2,12.5c1.2-0.2,2.2,5.2,2.2,5.2s-2.7,0.8-3.4,0.4c0,0-0.8-3.5-1.1-3.4L49.2,12.5z"/>
	</g>
</g>
            <g xmlns="http://www.w3.org/2000/svg">
	<g>
		<polygon style="fill:#FFD939;" points="109.9,29.5 91.9,99.3 138.7,99.3 138.7,29.5   "/>
	</g>
	<g>
		<path style="fill:#DD513A;" d="M129.7,11.5c0.1,0,0.5,0.1,1,1.1c0.7,1.3,1.6,5.1,1.6,5.1l-2.9,1.1L129,18l-0.6-6.1    C128.4,11.8,129.6,11.5,129.7,11.5z"/>
		<path style="fill:#F47458;" d="M125.8,10.9c0.8,0,2.9,0.2,3.9,0.6c0,0,0.7,6-0.6,10.6c-0.3,1,0.2,4.3,0.2,4.3l-8.6-0.1    c0,0,1-7.8,0.6-9.1c-0.4-1.3-0.4-5.7-0.4-5.7s0.1,0,1.9-0.3C123.7,11,124.9,10.9,125.8,10.9z"/>
		<path style="fill:#9E623F;" d="M124.8,37.6c0,0,0.2,2.2,0.5,2.8c0.4,0.6,0,1.6,0,1.8c0,0.1-0.7,0.3-1.9,0.2    c-1.1-0.1-1.1-0.4-1-0.8c0.1-0.4,0.7-1,0.7-1.4c0-0.4-0.4-1.9-0.4-1.9L124.8,37.6z"/>
		<path style="fill:#2D3244;" d="M128.3,24.6c0,0,6-0.3,7.3,0.5c1.3,0.8-0.9,4.8-0.9,4.8s-4.2-0.2-12.3,0.3c-1.9,0.1-2.1-5-1.7-5.4    C121,24.2,128.3,24.6,128.3,24.6z"/>
		<path style="fill:#DD513A;" d="M123.3,42.6c-1.2-0.1-1-0.7-0.9-1.1c0.1-0.3,0.4-0.6,0.6-0.9c0.1,0.1,0.3,0.2,0.8,0.4    c0.5,0.2,1.3-0.2,1.7-0.3c0.2,0.6,0.2,1.4,0.2,1.5C125.6,42.3,124.5,42.7,123.3,42.6z"/>
		<path style="fill:#393F51;" d="M123.9,28.8c0.2,1.8,1.4,10.8,1.4,10.8l-2.7,0.3c0,0-3.4-11.7-3.2-13.5c0.2-1.8,1.4-1.9,1.4-1.9    S123.3,24.1,123.9,28.8z"/>
		<path style="fill:#9E623F;" d="M120.8,12.2c0.8-0.3,1.2,7,1.3,10c1.4,0.1,3.9,0,4.5,0c0.3,0,1-0.3,1.3-0.3c0.3,0,0.6-0.1,0.7,0    c0.1,0,1.5,0.6,1.7,0.8c0.2,0.2,0.6,0.6,0.5,0.8c-0.1,0.2-0.8-0.5-0.8-0.5l-0.4-0.2c0.5,0.4,1.3,1,1.2,1.2    c-0.1,0.2-0.9-0.4-1.5-0.8c0.5,0.4,1.1,1.2,0.9,1.3c-0.1,0.1-0.8-0.8-1.5-1c-0.3-0.1-0.5,0.2-0.7,0.2c-0.2,0-0.4,0.1-0.5,0    l-0.8-0.2c-0.3,0-0.3,0.2-0.5,0.2c-0.3,0.1-0.8,0.1-1.2,0.2c-2.3,0.6-3.1,0.8-3.8,0.8C119,24.6,118.9,12.9,120.8,12.2z"/>
		<path style="fill:#DD513A;" d="M119.2,19c-0.2-3.1-0.1-6.9,1.6-7.5c0.7-0.3,1.9,1.3,1.7,7.6C121.6,19.2,120.2,19.2,119.2,19z"/>
		<path style="fill:#9E623F;" d="M132.8,39.5c0,0-0.2,0.8,0.2,1.3c0.4,0.5,2.2,1,2.4,1.3c0.2,0.3,0.2,0.5,0.2,0.5l-5-0.1l0.1-1.5    l0.2-1.1L132.8,39.5z"/>
		<path style="fill:#DD513A;" d="M133.3,41c0,0-1.3,0.5-1.9,0.2c-0.6-0.3-0.6-0.4-0.8-0.3c-0.2,0.1-0.2,1.5-0.2,1.5l5.6,0.2    c0.4,0,0.6-0.3,0.3-0.5c-0.2-0.2-0.5-0.3-0.6-0.4C135.2,41.5,133.3,41,133.3,41z"/>
		<path style="fill:#393F51;" d="M132.6,26c0.4-0.8,1.3-1.9,2.8-1.2c1.5,0.6,1.9,2.1,1.4,3.6c-0.5,1.5-3.5,10.5-3.6,11.7l-2.4,0    c0,0,0.4-7.1,0.6-8.8C131.4,29.7,131.9,27.4,132.6,26z"/>
		<path style="fill:#DDDDDD;" d="M136.6,17.7h-8.2c-0.2,0-0.4,0.1-0.5,0.3l-2.5,6.1h-4.5c-0.1,0-0.2,0.1-0.2,0.2l0,0    c0,0.1,0.1,0.2,0.2,0.2h12.8c0.4,0,0.7-0.2,0.8-0.5l2.5-5.7C137.2,18.1,137,17.7,136.6,17.7z"/>
		<path style="fill:#FFFFFF;" d="M132.2,21.3c-0.1,0.3-0.3,0.5-0.5,0.4c-0.2,0-0.4-0.3-0.3-0.6c0.1-0.3,0.3-0.5,0.5-0.4    C132.1,20.8,132.2,21,132.2,21.3z"/>
		<g>
			<path style="fill:#2F1A15;" d="M127.7,3.6c-0.2-0.1-0.5-0.2-0.7-0.3c-0.3-0.1-0.6-0.3-0.8-0.3c-0.5-0.1-1.2,0-1.7,0.4     C124,4,123,3.5,123.2,6.6c0.2,3.5,2.1,3.1,2.2,3c0-0.1,1.7-2.2,1.7-2.2s0.6,1.3,0.6,1.2C127.7,8.6,130.7,4.5,127.7,3.6z"/>
			<path style="fill:#9E623F;" d="M126.3,9.8l0.2,1.2c0,0,0.4,1.8-0.1,2.1c-0.5,0.3-2-2.2-2-2.2l0.2-3.1L126.3,9.8z"/>
			<path style="fill:#93582C;" d="M124.4,8.9c0.4,1.1,1.3,1.7,2,2l-0.1-1l-1.8-1.9L124.4,8.9z"/>
			<path style="fill:#9E623F;" d="M126.2,4.5c1-0.2,1.9,0.7,1.9,1.7c0,0.4,0,1-0.1,1.6c-0.2,1.4-1.2,2.7-1.8,2.6s-2.3-1.3-2-3.4     C124.3,5.7,125.1,4.7,126.2,4.5z"/>
			<path style="fill:#9E623F;" d="M124.6,7.2c-0.1,0.3-0.3,0.5-0.6,0.5c-0.3,0-0.4-0.3-0.4-0.6c0.1-0.3,0.3-0.5,0.6-0.5     C124.5,6.6,124.6,6.9,124.6,7.2z"/>
			<path style="fill:#2F1A15;" d="M124.2,6.5c0,0,0.8,0.2,1.1-0.3c0.3-0.5,1.3-1.6,2.6-1.1c1.3,0.4-1.2-1.1-1.3-1.1     c-0.1,0-1.4,0-1.4,0s-1,0.8-1,0.9c0,0.1-0.3,1-0.3,1L124.2,6.5z"/>
		</g>
		<path style="fill:#FFFFFF;" d="M125.6,8.6l1.4,0.3c0,0-0.1,0.5-0.8,0.4C125.5,9.2,125.6,8.6,125.6,8.6z"/>
	</g>
</g>

<g xmlns="http://www.w3.org/2000/svg">
	<g>
		<path style="fill:#EF6C4B;" d="M15.2,105.3c0.1-1.4-0.1-2.8-0.8-4.1c-0.5-1.1-1.9-1.8-3.1-1.8c-3.9,0-4.4,5.2-6.9,7.2    c-0.8,0.6-1.6,1.1-2.3,1.8c-2.7,2.4-1.5,6.9,1,9.1c1.7,1.5,4.3,2.3,6.4,1.2c1.1-0.6,1.9-1.6,2.5-2.7c0.8-1.6,1.4-3.4,2-5    C14.6,109,15.1,107.2,15.2,105.3z"/>
		<path style="fill:#8CB9E3;" d="M15.9,112.2c-1.2-3.7-2.8-3.6-2.8-3.6l1.3,7.9c0.8-0.2,1.7-0.7,2.5-0.9    C16.6,114.4,16.2,113.1,15.9,112.2z"/>
		<path style="fill:#E8BC91;" d="M22,124.8l-4.5-3.4c0,0-0.4-3.2-1-6c-0.8,0.2-1.4,0.8-2.2,1l1.1,6.3l5.8,3l1.6,2.1l0.4-2.2    L22,124.8z"/>
		<path style="fill:#F7CA98;" d="M3,151c0,0-0.3,1.9-0.7,2.5c-0.2,0.2-0.4,0.5-0.6,0.8c-0.3,0.6-0.1,1.4,0.1,1.9    c0.1,0.2,0,0.2,0.2,0.3c0.8,0.2,1.6-0.2,1.9-0.9c0.2-0.4,0.3-0.9,0.4-1.6c0.1-1.7,0.6-2.6,0.6-2.6L3,151z"/>
		<path style="fill:#E8BC91;" d="M11.3,151.9c0,0,0.2,2.2,0,2.9c-0.1,0.4-0.5,1.1-0.3,1.5c0.2,0.4,0.4,0.4,0.4,0.4l4.9,0.1    c0.3,0,0.1-0.2-0.1-0.3c-0.4-0.3-0.6-0.4-1.8-1c-0.1,0-0.3-0.2-0.4-0.3c-0.2-0.1-0.5-0.4-0.7-0.6c-0.4-0.4-0.4-2.3-0.4-2.3    L11.3,151.9z"/>
		<path style="fill:#2D3244;" d="M15.1,123.3c0,0,0.6,3.5,0.2,5.8c-0.4,2.3-2.3,23.5-2.3,23.5l-2.2,0.1c0,0-0.5-8.9-0.4-10.1    c0.1-1.2,0.7-3.3,0.7-3.3l-0.2-7.2l2.7-9.4L15.1,123.3z"/>
		<path style="fill:#393F51;" d="M8.8,122.5c0,0-1.7,2.6-2.1,4.7c-0.4,2.1,0.3,8.6-0.5,11.4c-0.4,1.5-2,3.8-2.3,5.8    c-0.2,1.9-1.2,7-1.2,7l2.2,0.4l5-12.7l3.9-11.5l1-5.9L8.8,122.5z"/>
		<path style="fill:#8CB9E3;" d="M10.2,108c0,0-2.2-0.1-3.1,0.8c-0.9,1,2,8.6,2.1,9.9c0.2,1.2-0.8,4.5-0.8,4.5s5.3,1.1,6.8,0.1    c0,0,0.2-8.9,0-9.8c-0.2-0.9-1.5-4.5-1.8-4.8C13,108.3,10.2,108,10.2,108z"/>
		<path style="fill:#F7CA98;" d="M10.9,105c0,0,0,0.1,0,0.2c-0.1,0.5-0.5,2.3-0.7,2.8c-0.3,0.6,1.1,2.5,2.4,2.3    c0.4-0.1-0.3-1.7-0.3-1.9c0.1-0.3,0.2-0.8,0.3-1.3c0.1-0.3,0.1-0.5,0.2-0.8c0.1-0.7,0.3-1.3,0.3-1.3L10.9,105z"/>
		<path style="fill:#E8BC91;" d="M10.9,105.2c0-0.1,0-0.2,0-0.2l2-0.1c0,0-0.1,0.6-0.3,1.3c-0.1,0.3-0.1,0.5-0.2,0.8    c-0.3,0-0.6-0.2-1-0.5c-0.4-0.3-0.6-0.7-0.7-1.1C10.8,105.3,10.9,105.2,10.9,105.2z"/>
		<path style="fill:#F7CA98;" d="M12.3,100.4c0,0-0.9-0.1-1.5,0.7c-0.6,0.8-1.2,3.1,0.2,4.4c1.5,1.3,2.9-0.2,3.1-1.7    C14.3,102.2,14.4,100.3,12.3,100.4z"/>
		<path style="fill:#F7CA98;" d="M14.5,103.8c-0.2,0.3-0.5,0.5-0.7,0.4c-0.2-0.1-0.2-0.5,0-0.8c0.2-0.3,0.5-0.5,0.7-0.4    C14.7,103,14.7,103.4,14.5,103.8z"/>
		<path style="fill:#EF6C4B;" d="M12.4,100.1c0,0-1.3,2.3-2.2,2.4c-0.9,0.1-1,1.3-1,1.3s0.3-2.8,1.2-3.3    C11.3,100,12.4,100.1,12.4,100.1z"/>
		<path style="fill:#F47458;" d="M4,155.4c-1.2,0.2-2-0.5-2.4-1c-0.3,0.6-0.4,1.5-0.2,1.9c0.2,0.4,0.8,0.4,1.2,0.4    c0.5,0,0.8-0.2,1.1-0.7C3.8,155.9,3.9,155.7,4,155.4z"/>
		<path style="fill:#F47458;" d="M14,155.2c-1.3,0.3-2.2,0.1-2.8-0.1c-0.1,0.4-0.3,0.9-0.2,1.2c0.1,0.3,0.3,0.4,0.4,0.4    c1.2,0,4.3,0.1,5.2,0.1c0.1,0,0.2-0.1,0.1-0.2C16.6,156.3,14.1,155.3,14,155.2z"/>
		<path style="fill:#F7CA98;" d="M10.4,103.1c0.1,0.4-0.1,0.8-0.3,0.8c-0.3,0.1-0.5-0.2-0.6-0.6c-0.1-0.4,0.1-0.8,0.3-0.8    C10.1,102.4,10.4,102.7,10.4,103.1z"/>
		<path style="fill:#FFFFFF;" d="M11.9,104.5l1.1,0.1c0,0,0,0.4-0.5,0.4C11.9,104.9,11.9,104.5,11.9,104.5z"/>
		<path style="fill:#F7CA98;" d="M18.2,113.9c0.1-0.2-1-0.4-1.1-0.7c-0.1-0.2,1.4-0.3,1.5-0.5c0.1-0.4-1.6-0.1-1.6-0.3    c0-0.2,1.8-0.6,1.6-0.9s-1.8,0.6-1.8,0.4c0-0.2,1.6-0.7,1.5-1.2c0-0.2-2.6,1.2-2.9,1.1c-0.3-0.1,0.3-1.3,0.1-1.4    c-0.2-0.2-0.9,2.3-1.1,2.4c-0.2,0.1-3.7,2.1-5,2.4c-0.2-0.4-0.5-1-0.6-1.4c-0.7,0.5-1.2,0.8-2,1.2c0.5,1.3,1.3,2.8,1.6,2.9    c1.1,0.5,5.4-3.1,6.3-3.7c0.9-0.6,1.4-0.4,1.9-0.6C17.3,113.6,18.1,114.2,18.2,113.9z"/>
		<path style="fill:#8CB9E3;" d="M6.7,115.8c0,0-1-4.3-0.8-5.5c0.2-1.2,1.6-2.4,2.7-2c1,0.4,1.5,6.4,1.5,6.4L6.7,115.8z"/>
	</g>
	<g>
		<polygon style="fill:#EF6C4B;" points="74.9,152 80.4,113.3 16.3,123.4 16.3,152   "/>
	</g>
</g>
<g xmlns="http://www.w3.org/2000/svg">
	<g>
		<path style="fill:#8CB9E3;" d="M78.3,152h60.4v-47.8L88.6,112L78.3,152z"/>
	</g>
	<g>
		<g>
			<g>
				<path style="fill:#E8BC91;" d="M138.7,119.4c1.1-1.2,4.2-4.9,4.2-4.9l-2.9-1.4l-1.3,1.6V119.4z"/>
			</g>
			<path style="fill:#449638;" d="M144.1,110.8c-0.6-0.2-1.3-0.3-2,0.1c-1.3,0.6-2.5,1.9-3.4,3.1v3.2c0.4,0.3,1.9,1,1.9,1     s1.6-2.4,2.3-3.7C143.8,113.1,144.3,110.9,144.1,110.8z"/>
		</g>
		<path style="fill:#F7CA98;" d="M152.9,153.5c0,0,0.1,1.9,0.1,1.9c0,0.2,0.2,0.8,0.2,1c0,0.8-3.6-0.7-2.8-1c0.1,0,0.5-0.3,0.5-0.6    c0-0.4,0.1-1.3,0.1-1.3L152.9,153.5z"/>
		<path style="fill:#393F51;" d="M150.4,155.4c0,0,0.8,0.2,1.3,0.3c0.4,0.1,1-0.5,1.3-0.3c0.3,0.2,0.3,1.6,0.3,1.6s-4.5,0.4-5.8,0    C147,156.7,148.7,155.9,150.4,155.4z"/>
		<path style="fill:#E8BC91;" d="M158.9,153.4c0,0,0.1,1.9,0.1,1.9c0,0.2,0.2,0.8,0.2,1c0,0.8-3.6-0.7-2.8-1c0.1,0,0.6-0.5,0.6-0.7    c0-0.4,0-1.1,0-1.1L158.9,153.4z"/>
		<path style="fill:#393F51;" d="M156.5,155.2c0,0,0.8,0.2,1.3,0.3c0.4,0.1,1-0.5,1.3-0.3c0.3,0.2,0.3,1.6,0.3,1.6s-4.5,0.2-5.8,0    C153,156.7,154.7,155.8,156.5,155.2z"/>
		<path style="fill:#2D3244;" d="M157.9,123.7c0,0,0.6,3.1,0.4,5.5c-0.2,2.4-0.3,10.9-0.3,10.9l1.1,13.6l-2.4,0.1    c0,0-2.7-13.6-2.6-13.2c0,0.3-0.9-9.6-0.9-9.6l3.2-7.6L157.9,123.7z"/>
		<path style="fill:#393F51;" d="M157,121.7c0,0,2.8,2.9,1.7,6.1c-0.4,1.3-4.3,13.4-4.3,14.4c0,1-1.3,12-1.3,12l-2.6-0.1l-0.6-12.2    l0.7-16.5l1.6-2.8L157,121.7z"/>
		<path style="fill:#54B848;" d="M140.3,112.2c0.9-1,2.9-2.4,2.9-2.4s1.2-1,1.6-1.2c0.7-0.2,1.9-0.9,3.6,1.7    c1.2,1.9,9.1,11.7,10.4,12l-8.4,4c-0.2-1.9-4.4-5.6-5-6.2C144.1,118.7,139.4,113.2,140.3,112.2z"/>
		<path style="fill:#F7CA98;" d="M140.7,108.1l2.6,1.5c0,0,0.1,2.2-0.8,2.8c-0.7,0.5-1.3-0.7-1.3-0.7s-1-1.4-1.7-1.8    C138.8,109.6,140.7,108.1,140.7,108.1z"/>
		<path style="fill:#E8BC91;" d="M141.1,109.1c-0.1,0.5-0.3,1.1-0.7,1.7c-0.3-0.3-0.6-0.6-0.9-0.8c-0.3-0.2-0.1-0.6,0.2-1    c0.5-0.5,0.9-0.9,0.9-0.9l0.5,0.3C141.2,108.6,141.1,109,141.1,109.1z"/>
		<path style="fill:#F7CA98;" d="M139.3,104.3c0-0.1,2.2,2.6,1.9,3.9c-0.3,1.3-1.6,2.4-2.5,2.1c-1-0.3-2.9-3.5-2.2-5    S139.3,104.3,139.3,104.3z"/>
		<path style="fill:#BF7021;" d="M136.9,103.5c0.9-0.5,2.5-0.7,3.6-0.1c1.4,0.7,1.7,2.6,1.3,3.7c-0.4,1.1,0.1,1.8,0.1,1.8l-0.7-0.4    c0,0-0.4-0.7-0.5-1.2c-0.1-0.5-0.8-0.4-1.2-0.7c-0.3-0.2-0.7-0.8-1.2-1.1c0,0-1.2-0.1-1.8,0.2    C135.4,106.2,135.6,104.2,136.9,103.5z"/>
		<path style="fill:#F7CA98;" d="M140,107c0,0.4,0.2,0.7,0.4,0.7c0.2,0,0.4-0.3,0.5-0.7c0-0.4-0.2-0.7-0.4-0.7    C140.2,106.2,140,106.6,140,107z"/>
		<path style="fill:#FFFFFF;" d="M137.8,109.1l1.1-0.9c0,0,0.3,0.5-0.2,0.9C138.2,109.6,137.8,109.1,137.8,109.1z"/>
		<path style="fill:#F7CA98;" d="M135,126.1c0.3-0.4,0.4-1,0.8-1.5c0.1-0.2,0.3-0.3,0.6-0.5c1.9-1.1,6.9-4,7.1-4.2    c0.2-0.3,3.6-5.9,3.6-5.9l-3-0.7l-3,5.2c-0.2,0.2-5,3.7-5,3.7s-0.9,0.7-1.4,1.1c-0.3,0.2-0.5,0.2-0.7,0.3    c-0.3,0.1-0.8,0.4-0.9,0.5c-0.1,0.1-0.4,0.3-0.5,0.5c-0.1,0.1-0.3,0.3-0.4,0.4c0,0.1-0.2,0.1-0.3,0.2c-0.1,0.1-0.1,0.3,0,0.3    c0.1,0,0.3,0,0.5-0.1c0.3-0.2,0.8-0.6,0.8-0.5c0,0.1-0.4,1-0.4,1.1c0,0.1-0.5,1.2-0.6,1.4c0,0.2,0.1,0.3,0.2,0.2    c0.1-0.1,0.9-1.5,0.9-1.5s0.1-0.2,0.1-0.1c0,0.1-0.7,1.4-0.7,1.6c-0.1,0.2,0,0.4,0.2,0.3c0.2-0.1,0.9-1.5,0.9-1.5s0.1-0.2,0.1-0.1    c0.1,0.1-0.6,1.2-0.6,1.3c0,0.1,0.1,0.3,0.3,0.1c0.2-0.1,0.8-1.4,0.8-1.4s0.1-0.1,0.1,0c0,0.1-0.4,1-0.4,1.2    c0,0.1,0.1,0.1,0.1,0.1C134.4,127.5,134.7,126.5,135,126.1z"/>
		<path style="fill:#78CE6B;" d="M146.2,117c0,0-1-0.3-1.6-0.6c-0.4-0.2-2.3-1.1-2.3-1.1s0.8-3.4,1.3-4.6c2-4.5,4.2-1.4,4.5-0.7    C148.8,111.6,146.2,117,146.2,117z"/>
	</g>
	<g>
		<g>
			<path style="fill:#F7CA98;" d="M87.2,117c0.1,0.2,0.1,0.3,0.2,0.4c0.5,0.9,1.6,2.1,1.6,2.1l0.9-2c0,0-0.1-0.6-0.4-1.5     C88.6,116.3,87.8,116.4,87.2,117z"/>
			<path style="fill:#2A4872;" d="M92.2,115.3c0,0-4.8,2.1-5,2c-0.1,0-2-3.2-2-6.1c0-1.4,1.4-3,3-2.7c0.8,0.2,0.8,0.4,2,2.1     C91.4,112.3,92.2,115.3,92.2,115.3z"/>
			<path style="fill:#F7CA98;" d="M96.3,152.6c0,0-0.1,1.9-0.1,1.9c0,0.2-0.2,0.8-0.2,1.1c0,0.8,3.9-0.7,3-1.1     c-0.1,0-0.5-0.3-0.5-0.6c0-0.4-0.1-1.3-0.1-1.3L96.3,152.6z"/>
			<path style="fill:#393F51;" d="M99,154.5c0,0-0.9,0.3-1.4,0.3c-0.5,0.1-1.1-0.5-1.4-0.3c-0.4,0.2-0.4,1.6-0.4,1.6s4.9,0.4,6.3,0     C102.7,155.9,100.9,155.1,99,154.5z"/>
			<path style="fill:#E8BC91;" d="M88.3,152.6c0,0-0.1,1.9-0.1,1.9c0,0.2-0.2,0.8-0.2,1.1c0,0.8,3.9-0.7,3-1.1     c-0.1,0-0.6-0.5-0.6-0.8c0-0.4,0-1.1,0-1.1L88.3,152.6z"/>
			<path style="fill:#393F51;" d="M91,154.5c0,0-0.9,0.3-1.4,0.3c-0.5,0.1-1.1-0.5-1.4-0.3c-0.4,0.2-0.4,1.6-0.4,1.6s4.9,0.5,6.3,0     C94.7,155.9,92.9,155.1,91,154.5z"/>
			<g>
				<path style="fill:#F7CA98;" d="M89.5,118l3.4-4.8c0,0,0-0.1,0.1-0.3c0.2-0.5,0.5-1.5,0.8-2.5l0,0c0.1-0.3,0.3-1,0.5-1.5      c0.2-0.7,0.5-1.5,0.5-1.6c0,0,0-0.1,0-0.1c-0.1-0.3-0.3-1.1-0.4-1.4c0-0.2-0.1-0.7,0.2-0.7c0.4,0,0.2,0.5,0.4,0.9      c0.1-0.2,0.2-0.7,0.3-1.1l0.1-1c0-0.1-0.1-0.6,0.2-0.6l0,0c0.3,0,0.2,0.6,0.4,1.6c0-0.1,0.1-0.3,0.1-0.4c0-0.1,0-0.4,0.1-0.5      c-0.1-0.3,0-0.7,0.3-0.7c0.2,0,0.1,0.6,0.1,0.6c0,0.1,0,0.7,0,0.9c0-0.2,0.2-1.2,0.4-1.2c0.2,0,0.2,0.3,0.2,0.5      c0,0.1-0.1,1.1-0.1,1.3c0.1-0.2,0.2-1.1,0.3-1.1c0.4,0,0.2,1.3,0.1,1.6c0,0,0,0.1,0,0.2c0,0.2-0.1,0.6-0.3,1      c-0.2,0.4-0.6,1.1-0.6,1.2c0,0.2-0.2,0.9-0.3,1.9c-0.1,0.4-0.1,0.8-0.2,1.3l0,0c0,0.1-0.1,0.4-0.4,1.6c-0.4,1.6-0.4,1.7-0.4,1.7      c-0.2,0.3-3.9,5.3-4,5.5l-0.1,0.1L89.5,118z"/>
				<path style="fill:#E8BC91;" d="M95.9,106.7c0,0-0.3-0.7-0.8-0.7c0,0,0.3-0.1,0.5,0.1S95.9,106.7,95.9,106.7z"/>
			</g>
			<g>
				<path style="fill:#F7CA98;" d="M88.7,105.4l-0.4,2.8c0,0,1.7,1.4,2.7,1.1c0.8-0.2,0.3-1.3,0.3-1.3s-0.4-1.5-0.3-2.3      C91,104.9,88.7,105.4,88.7,105.4z"/>
				<path style="fill:#E8BC91;" d="M89,106.2c0.4,0.2,1.3,0.5,1.9,0.5c-0.1-0.4-0.1-0.8,0-1.1c0.1-0.4-0.4-0.4-0.9-0.4      c-0.7,0.1-1.3,0.2-1.3,0.2l-0.1,0.5C88.7,106,88.9,106.1,89,106.2z"/>
				<path style="fill:#F7CA98;" d="M86.6,102.1c-0.1,0,0.7,3.1,1.8,3.7c1.1,0.5,2.8,0.3,3.2-0.6c0.4-0.9-0.9-4.1-2.5-4.5      C87.4,100.3,86.6,102.1,86.6,102.1z"/>
				<path style="fill:#393F51;" d="M87.9,99.2c-0.9,0.5-1.3,1.3-1.5,1.6c-0.4,0.2-0.9,0.6-1.2,1.8c-0.3,1.5,0.8,2.6,1.9,2.9      c1.2,0.3,1.3,1.1,1.3,1.1l0.1-0.8c0,0-0.3-0.7-0.6-1.1c-0.4-0.4,0.2-0.9,0.2-1.3c0-0.3-0.2-1-0.2-1.5c0,0,0.6-1,1.3-1.2      C90.4,100.4,89.1,98.6,87.9,99.2z"/>
				<path style="fill:#F7CA98;" d="M88.4,104.1c0.1,0.4,0.1,0.7-0.1,0.8c-0.2,0.1-0.5-0.1-0.7-0.5c-0.1-0.4-0.1-0.7,0.1-0.8      C87.9,103.5,88.2,103.7,88.4,104.1z"/>
			</g>
			<path style="fill:#F7CA98;" d="M92.6,118.1l6.6-1.1c0,0-0.8-1.9-1-1.9c-0.3,0-5,2.1-5,2.1l-0.4,0.8L92.6,118.1z"/>
			<path style="fill:#EAAA63;" d="M89.2,122.6c0,0-0.7,3.2-0.4,5.6c0.3,2.4,0.3,11.1,0.3,11.1l-1,13.8l2.4,0.1     c0,0,2.9-13.8,2.8-13.5c-0.1,0.4,1-9.7,1-9.7l-3.5-7.7L89.2,122.6z"/>
			<path style="fill:#FCCA7D;" d="M89.9,122.5c0,0-0.4,2.9,0.1,4.2c0.5,1.3,4.6,13.7,4.7,14.7c0.1,1,1.4,12.2,1.4,12.2l2.8-0.1     l0.6-12.4l-1.3-15.6l-1.3-4L89.9,122.5z"/>
			<path style="fill:#F7CA98;" d="M88.2,108.2c0,0,0.7,0.5,1.4,0.4c0.7-0.1,1.6-0.7,1.6-0.7l-0.1-0.4c0,0-1.7-0.2-1.7-0.2     C89.3,107.3,88.2,108.2,88.2,108.2z"/>
			<path style="fill:#F7CA98;" d="M95.7,115c0,0,2.5,2.4,3.6,2c1.1-0.4,1.6-1.8-1.2-3.8C95.7,111.3,95.7,115,95.7,115z"/>
			<path style="fill:#355389;" d="M97.4,117.9c-0.4-2-3.1-8.4-3.3-9.5c-0.1-0.6-1.6-0.6-3-0.5c-1.5,0.1-2.9,0.3-2.9,0.3     s-1.3,0.2-1.9,0.7c-0.6,0.5-0.7,2,0.1,4.8c0.6,2.2,1.5,3.4,1.9,5.1c0.1,0.5,0.1,1.1,0.2,1.7c0.1,2.4,0,5.6,0,5.6s7.1,1.5,9.7-0.8     C98.3,125.4,97.8,120,97.4,117.9z"/>
			<path style="fill:#466EB6;" d="M99.2,113.6c0,0-2.8,2.3-2.9,2.3c-0.1,0-4-2.8-4.9-5.2c-0.5-1.3,0.5-2.7,1.7-2.7     c0.8,0,1.2,0.2,2.8,1.6C97.6,110.9,99.2,113.6,99.2,113.6z"/>
		</g>
		<path style="fill:#FFFFFF;" d="M90.2,104.6l0.9-0.7c0,0,0.2,0.4-0.2,0.7C90.5,104.9,90.2,104.6,90.2,104.6z"/>
	</g>
</g>
</svg>